<?xml version="1.0" encoding="UTF-8" standalone="no"?><!DOCTYPE svg PUBLIC "-//W3C//DTD SVG 1.1//EN" "http://www.w3.org/Graphics/SVG/1.1/DTD/svg11.dtd"><svg width="100%" height="100%" viewBox="0 0 1080 1080" version="1.1" xmlns="http://www.w3.org/2000/svg" xmlns:xlink="http://www.w3.org/1999/xlink" xml:space="preserve" xmlns:serif="http://www.serif.com/" style="fill-rule:evenodd;clip-rule:evenodd;stroke-miterlimit:2;"><g><path d="M385.9,576.317l-0,-531.009l-68.708,0l1.375,989.384l445.222,-0l-0.981,-458.375l-376.908,-0Zm-0,68.707l-0,106.987c-0,-0 -0,213.099 -0,213.099c-0,0 308.2,0.963 308.2,0.963c0,0 0,-321.049 0,-321.049l-308.2,-0Z" style="stroke:#000;stroke-width:12.5px;"/><rect x="175.852" y="45.308" width="68.707" height="989.383" style="stroke:#000;stroke-width:12.5px;"/><path d="M210.206,503.683l625.235,0c-0,122.552 -0,531.009 -0,531.009l68.707,-0l0,-599.716l-693.942,0l-0,68.707Z" style="stroke:#000;stroke-width:12.5px;"/></g></svg>