<?xml version="1.0" encoding="UTF-8" standalone="no"?><!DOCTYPE svg PUBLIC "-//W3C//DTD SVG 1.1//EN" "http://www.w3.org/Graphics/SVG/1.1/DTD/svg11.dtd"><svg width="100%" height="100%" viewBox="0 0 757 1018" version="1.1" xmlns="http://www.w3.org/2000/svg" xmlns:xlink="http://www.w3.org/1999/xlink" xml:space="preserve" xmlns:serif="http://www.serif.com/" style="fill-rule:evenodd;clip-rule:evenodd;stroke-miterlimit:2;"><g><path d="M224.023,544.984l0,-531.009l-68.707,0l1.374,989.384l445.223,-0l-0.982,-458.375l-376.908,-0Zm0,68.707l0,106.987c0,-0 0,213.099 0,213.099c0,0 308.201,0.964 308.201,0.964c-0,-0 -0,-321.05 -0,-321.05l-308.201,0Z" style="fill:#ededed;stroke:#ededed;stroke-width:12.5px;"/><rect x="13.975" y="13.975" width="68.707" height="989.383" style="fill:#ededed;stroke:#ededed;stroke-width:12.5px;"/><path d="M48.329,472.351l625.235,-0c0,122.551 0,531.008 0,531.008l68.708,-0l-0,-599.716l-693.943,0l0,68.708Z" style="fill:#ededed;stroke:#ededed;stroke-width:12.5px;"/></g></svg>